<svg width="48" height="48" viewBox="0 0 48 48" fill="none" xmlns="http://www.w3.org/2000/svg">
<rect width="48" height="48" rx="10" fill="white"/>
<path d="M34.7273 20.9545H28.3182C28.2727 20.4242 28.1515 19.9432 27.9545 19.5114C27.7652 19.0795 27.5 18.7083 27.1591 18.3977C26.8258 18.0795 26.4205 17.8371 25.9432 17.6705C25.4659 17.4962 24.9242 17.4091 24.3182 17.4091C23.2576 17.4091 22.3598 17.6667 21.625 18.1818C20.8977 18.697 20.3447 19.4356 19.9659 20.3977C19.5947 21.3598 19.4091 22.5152 19.4091 23.8636C19.4091 25.2879 19.5985 26.4811 19.9773 27.4432C20.3636 28.3977 20.9205 29.1174 21.6477 29.6023C22.375 30.0795 23.25 30.3182 24.2727 30.3182C24.8561 30.3182 25.3788 30.2462 25.8409 30.1023C26.303 29.9508 26.7045 29.7348 27.0455 29.4545C27.3864 29.1742 27.6629 28.8371 27.875 28.4432C28.0947 28.0417 28.2424 27.5909 28.3182 27.0909L34.7273 27.1364C34.6515 28.1212 34.375 29.125 33.8977 30.1477C33.4205 31.1629 32.7424 32.1023 31.8636 32.9659C30.9924 33.822 29.9129 34.5114 28.625 35.0341C27.3371 35.5568 25.8409 35.8182 24.1364 35.8182C22 35.8182 20.0833 35.3598 18.3864 34.4432C16.697 33.5265 15.3598 32.178 14.375 30.3977C13.3977 28.6174 12.9091 26.4394 12.9091 23.8636C12.9091 21.2727 13.4091 19.0909 14.4091 17.3182C15.4091 15.5379 16.7576 14.1932 18.4545 13.2841C20.1515 12.3674 22.0455 11.9091 24.1364 11.9091C25.6061 11.9091 26.9583 12.1098 28.1932 12.5114C29.428 12.9129 30.5114 13.5 31.4432 14.2727C32.375 15.0379 33.125 15.9811 33.6932 17.1023C34.2614 18.2235 34.6061 19.5076 34.7273 20.9545Z" fill="#FFB1B1"/>
</svg>
